<svg xmlns="http://www.w3.org/2000/svg" width="289.017" height="35.708" viewBox="0 0 289.017 35.708">
    <defs>
        <style>
            .prefix__cls-1{fill:#fff}
        </style>
    </defs>
    <g id="prefix__logo_38" transform="translate(-2.548 -1.614)">
        <path id="prefix__Path_425" d="M37.642 20.695a1.953 1.953 0 0 1-3.906 0v-5.406a1.953 1.953 0 1 1 3.906 0z" class="prefix__cls-1" data-name="Path 425"/>
        <path id="prefix__Path_426" d="M12.309 7.777a1.952 1.952 0 0 0-1.953 1.952v5.349A1.952 1.952 0 0 1 6.969 16.4a2.216 2.216 0 0 0-.144-.174c-.016-.024-.032-.043-.047-.067v.017a2.454 2.454 0 1 0 0 3.388v.014l.046-.064a2.029 2.029 0 0 0 .144-.175 1.952 1.952 0 0 1 3.387 1.325v5.5a1.953 1.953 0 0 0 3.906 0V9.728a1.951 1.951 0 0 0-1.952-1.951" class="prefix__cls-1" data-name="Path 426"/>
        <path id="prefix__Path_427" d="M27.245 7.053a1.954 1.954 0 0 0-1.953 1.954v6.7a1.95 1.95 0 0 1-3.8 0V3.568a1.953 1.953 0 1 0-3.907 0v31.8a1.954 1.954 0 0 0 3.907 0V23.261a1.951 1.951 0 0 1 3.8 0v6.582a1.953 1.953 0 0 0 3.906 0V9.006a1.953 1.953 0 0 0-1.953-1.953" class="prefix__cls-1" data-name="Path 427"/>
        <g id="prefix__Group_19" data-name="Group 19">
            <path id="prefix__Path_428" d="M220.424 27.189a7.716 7.716 0 0 0 1.809-2.779 10.45 10.45 0 0 0 .709-3.968V7.469a1.885 1.885 0 1 0-3.766 0v13.775a4.856 4.856 0 0 1-2.248 3.975 8.581 8.581 0 0 1-2.018.924 6.356 6.356 0 0 1-3.92 0 8.547 8.547 0 0 1-2.005-.922 4.789 4.789 0 0 1-1.647-1.619 4.729 4.729 0 0 1-.716-2.358V7.469a1.885 1.885 0 1 0-3.766 0v12.972a10.4 10.4 0 0 0 .739 3.937 7.969 7.969 0 0 0 1.821 2.791 9.411 9.411 0 0 0 2.487 1.686 10.838 10.838 0 0 0 2.633.88 12.862 12.862 0 0 0 4.783 0 11.26 11.26 0 0 0 2.611-.88 9.435 9.435 0 0 0 2.494-1.666z" class="prefix__cls-1" data-name="Path 428"/>
            <path id="prefix__Path_429" d="M185.861 5.012a11.749 11.749 0 0 0-8.828 3.654 12.336 12.336 0 0 0-3.486 8.819 12.344 12.344 0 0 0 3.486 8.823 11.751 11.751 0 0 0 8.828 3.654 12.253 12.253 0 0 0 8.98-3.662 12.081 12.081 0 0 0 3.654-8.815 12.085 12.085 0 0 0-3.654-8.813 12.259 12.259 0 0 0-8.98-3.66zm6.161 18.827a8.144 8.144 0 0 1-6.169 2.615 7.652 7.652 0 0 1-5.993-2.588 9.078 9.078 0 0 1-2.359-6.382 9.072 9.072 0 0 1 2.361-6.378 7.647 7.647 0 0 1 5.991-2.587 8.154 8.154 0 0 1 6.169 2.612 8.762 8.762 0 0 1 2.519 6.353 8.751 8.751 0 0 1-2.519 6.355z" class="prefix__cls-1" data-name="Path 429"/>
            <path id="prefix__Path_430" d="M155.795 27.768a8.95 8.95 0 0 0 1.076.741 9.637 9.637 0 0 0 5.019 1.452 8.623 8.623 0 0 0 5.57-1.972 6.212 6.212 0 0 0 2.476-5 8.421 8.421 0 0 0-.191-1.865 4.837 4.837 0 0 0-.723-1.6c-.256-.38-.487-.707-.694-.976a5.3 5.3 0 0 0-1.274-1.1l-1.194-.794c-.287-.2-.794-.492-1.55-.906l-1.459-.8c-.058-.038-.14-.094-1.073-.571a9.6 9.6 0 0 1-1.14-.648L159.7 13a2.286 2.286 0 0 1-.7-.8 2.137 2.137 0 0 1-.2-.937 2.217 2.217 0 0 1 1.07-1.971 4.708 4.708 0 0 1 2.676-.773 7.006 7.006 0 0 1 3.148.932c.114.061.2.106.285.157a1.835 1.835 0 0 0 1.839-3.175 5.844 5.844 0 0 0-.671-.355 10.821 10.821 0 0 0-4.59-1.067 8.775 8.775 0 0 0-5.327 1.7 5.432 5.432 0 0 0-2.384 4.548 4.978 4.978 0 0 0 1.269 3.345 10.329 10.329 0 0 0 2.93 2.32l3.289 1.714a9.448 9.448 0 0 1 2.65 1.941 3.411 3.411 0 0 1 1 2.2A3.377 3.377 0 0 1 164.5 25.7a4.469 4.469 0 0 1-2.6.752 6.562 6.562 0 0 1-3.342-1.3c-.17-.107-.344-.223-.519-.347a1.793 1.793 0 0 0-1.039-.332 1.869 1.869 0 0 0-1.692 1.086 1.832 1.832 0 0 0 .487 2.209z" class="prefix__cls-1" data-name="Path 430"/>
            <path id="prefix__Path_431" d="M277.423 27.766a8.566 8.566 0 0 0 1.077.743 9.628 9.628 0 0 0 5.018 1.452 8.629 8.629 0 0 0 5.569-1.97 6.217 6.217 0 0 0 2.478-5 8.492 8.492 0 0 0-.193-1.872 4.826 4.826 0 0 0-.721-1.59c-.255-.381-.486-.71-.693-.98a5.3 5.3 0 0 0-1.274-1.1l-1.194-.8c-.283-.192-.789-.488-1.55-.906l-1.459-.793c-.06-.039-.144-.1-1.075-.573a9.43 9.43 0 0 1-1.139-.649l-.94-.728a2.289 2.289 0 0 1-.7-.8 2.164 2.164 0 0 1-.2-.939 2.212 2.212 0 0 1 1.07-1.971 4.715 4.715 0 0 1 2.676-.772 7 7 0 0 1 3.149.931c.077.041.153.083.229.126a1.811 1.811 0 0 0 2.625-.789 1.842 1.842 0 0 0-.731-2.354 6.3 6.3 0 0 0-.672-.356 10.82 10.82 0 0 0-4.589-1.066 8.773 8.773 0 0 0-5.327 1.7 5.429 5.429 0 0 0-2.384 4.548 4.984 4.984 0 0 0 1.269 3.346 10.327 10.327 0 0 0 2.931 2.319l3.288 1.714a9.47 9.47 0 0 1 2.65 1.942 3.429 3.429 0 0 1 1 2.2 3.385 3.385 0 0 1-1.482 2.914 4.474 4.474 0 0 1-2.6.752 6.574 6.574 0 0 1-3.343-1.3c-.169-.106-.343-.222-.518-.346a1.785 1.785 0 0 0-1.038-.331 1.867 1.867 0 0 0-1.692 1.086 1.821 1.821 0 0 0 .485 2.212z" class="prefix__cls-1" data-name="Path 431"/>
            <path id="prefix__Path_432" d="M260.319 5.7h-5.474a1.677 1.677 0 0 0-1.774 1.874V27.4c0 1.144.631 2.155 1.774 2.155h5.474A11.784 11.784 0 0 0 272.465 17.5a11.56 11.56 0 0 0-12.146-11.8zm7.969 14.111a9.257 9.257 0 0 1-.85 2.344 7.249 7.249 0 0 1-1.624 2.12 7.961 7.961 0 0 1-2.729 1.512 12.446 12.446 0 0 1-4.062.626h-1.232a1.021 1.021 0 0 1-.954-1.115V9.673c0-.588.367-.834.954-.834h1.232a12.893 12.893 0 0 1 4.058.477 7.832 7.832 0 0 1 2.731 1.422 7.145 7.145 0 0 1 1.626 2.089 9.226 9.226 0 0 1 .851 2.334 12.318 12.318 0 0 1 0 4.651z" class="prefix__cls-1" data-name="Path 432"/>
            <path id="prefix__Path_433" d="M245.538 29.961a1.9 1.9 0 0 0 1.883-1.979V15.013a10.388 10.388 0 0 0-.615-3.936 7.881 7.881 0 0 0-1.758-2.794 9.252 9.252 0 0 0-2.457-1.683 10.881 10.881 0 0 0-2.618-.881 12.752 12.752 0 0 0-4.774 0 11.1 11.1 0 0 0-2.6.878 9.494 9.494 0 0 0-2.499 1.667 7.979 7.979 0 0 0-1.933 2.78 10.475 10.475 0 0 0-.832 3.969v12.969a2.208 2.208 0 0 0 4.393 0V14.21a4.572 4.572 0 0 1 .494-2.365 4.429 4.429 0 0 1 1.47-1.611 8.261 8.261 0 0 1 1.97-.924 6.42 6.42 0 0 1 1.927-.31 6.63 6.63 0 0 1 1.957.31 8.343 8.343 0 0 1 2 .924 4.522 4.522 0 0 1 1.517 1.622 4.614 4.614 0 0 1 .588 2.355v13.772a1.906 1.906 0 0 0 1.887 1.978z" class="prefix__cls-1" data-name="Path 433"/>
            <path id="prefix__Path_434" d="M87.576 5.012a11.751 11.751 0 0 0-8.828 3.654 12.34 12.34 0 0 0-3.486 8.819 12.351 12.351 0 0 0 3.486 8.823 11.748 11.748 0 0 0 8.828 3.654 12.255 12.255 0 0 0 8.981-3.662 12.081 12.081 0 0 0 3.654-8.815 12.08 12.08 0 0 0-3.655-8.813 12.254 12.254 0 0 0-8.98-3.66zm6.162 18.827a8.147 8.147 0 0 1-6.169 2.615 7.65 7.65 0 0 1-5.992-2.588 9.084 9.084 0 0 1-2.358-6.382 9.078 9.078 0 0 1 2.359-6.378 7.647 7.647 0 0 1 5.992-2.587 8.154 8.154 0 0 1 6.169 2.612 8.761 8.761 0 0 1 2.518 6.353 8.757 8.757 0 0 1-2.519 6.355z" class="prefix__cls-1" data-name="Path 434"/>
            <path id="prefix__Path_435" d="M140.289 19.792l6.886 9.039a1.794 1.794 0 0 0 1.376.721h.392a1.787 1.787 0 0 0 1.379-2.851l-7.66-10.093a.732.732 0 0 1 .035-.922l6.449-7.31a1.734 1.734 0 1 0-2.6-2.291l-7.838 9.126a.636.636 0 0 1-1.125-.478V7.226c0-.956-1.069-1.525-2.025-1.525h-.487a1.705 1.705 0 0 0-1.882 1.525v20.5a1.946 1.946 0 0 0 1.882 1.822h.487a2.085 2.085 0 0 0 2.025-1.822v-5.558c0-.176-.081-.346.035-.479l1.627-1.936a.581.581 0 0 1 .471-.246.722.722 0 0 1 .573.285z" class="prefix__cls-1" data-name="Path 435"/>
            <path id="prefix__Path_436" d="M116.452 5.012a11.751 11.751 0 0 0-8.828 3.654 12.34 12.34 0 0 0-3.486 8.819 12.351 12.351 0 0 0 3.486 8.823 11.748 11.748 0 0 0 8.828 3.654 12.255 12.255 0 0 0 8.981-3.662 12.084 12.084 0 0 0 3.653-8.815 12.081 12.081 0 0 0-3.654-8.813 12.259 12.259 0 0 0-8.98-3.66zm6.162 18.827a8.147 8.147 0 0 1-6.169 2.615 7.65 7.65 0 0 1-5.992-2.588 9.078 9.078 0 0 1-2.359-6.382 9.076 9.076 0 0 1 2.36-6.378 7.649 7.649 0 0 1 5.992-2.587 8.157 8.157 0 0 1 6.169 2.612 8.76 8.76 0 0 1 2.517 6.353 8.761 8.761 0 0 1-2.518 6.355z" class="prefix__cls-1" data-name="Path 436"/>
            <path id="prefix__Path_437" d="M68.535 29.7a1.9 1.9 0 0 0 1.883-1.977V7.7a1.885 1.885 0 1 0-3.766 0v7.117a1.034 1.034 0 0 1-1.081.923h-8.535a1.008 1.008 0 0 1-1.054-.923V7.7a1.885 1.885 0 1 0-3.766 0v20.021a1.885 1.885 0 1 0 3.766 0v-7.1a1.176 1.176 0 0 1 1.054-1.11h8.535a1.2 1.2 0 0 1 1.081 1.11v7.1a1.9 1.9 0 0 0 1.883 1.979z" class="prefix__cls-1" data-name="Path 437"/>
        </g>
    </g>
</svg>
